<svg width="30" height="30" viewBox="0 0 30 30" fill="none" xmlns="http://www.w3.org/2000/svg">
<path fill-rule="evenodd" clip-rule="evenodd" d="M14.1227 3.82496C7.58234 5.37643 2.0976 6.70725 1.93438 6.78232C1.59343 6.93914 1.31098 7.23448 1.1464 7.60636C0.904454 8.15307 0.913979 8.22752 1.54856 10.7497L2.13896 13.0964V19.8103C2.13896 25.6799 2.15094 26.5702 2.23434 26.8903C2.43917 27.6765 2.98722 28.3205 3.7897 28.718L4.31133 28.9764L15.4086 28.9928C26.3219 29.0089 26.5125 29.0072 26.9079 28.8874C27.9359 28.5759 28.6998 27.7422 28.9253 26.6852C29.0274 26.2069 29.0236 12.0608 28.9213 11.8364C28.7588 11.4798 29.4111 11.5003 18.2022 11.5003C12.5334 11.5003 7.90676 11.4891 7.92083 11.4755C7.93497 11.4618 9.24623 11.1567 10.8348 10.7975C12.4235 10.4383 14.3178 10.0084 15.0445 9.84207C16.1716 9.5842 20.8696 8.51967 26.598 7.2241C27.4261 7.03681 28.2471 6.84405 28.4223 6.79571C28.75 6.70541 28.9948 6.48409 28.9948 6.27824C28.9948 6.07375 27.9453 2.19246 27.82 1.93367C27.5627 1.4022 26.8787 0.9907 26.2683 1.00016C26.1286 1.00237 20.663 2.27349 14.1227 3.82496ZM26.5925 2.19117C26.6874 2.24025 26.7963 2.3577 26.8345 2.45224C26.9185 2.66042 27.7042 5.63123 27.7042 5.74075C27.7042 5.79137 27.2933 5.90992 26.5212 6.08211C25.8705 6.22726 25.3089 6.34477 25.2731 6.34317C25.2374 6.34164 24.4907 5.61759 23.6139 4.73414C22.5111 3.62305 22.048 3.11774 22.1118 3.09496C22.3183 3.02124 26.1476 2.11464 26.2785 2.10855C26.3562 2.10487 26.4975 2.14209 26.5925 2.19117ZM22.3856 5.04767C23.4492 6.11141 23.9502 6.65264 23.8908 6.67383C23.7127 6.73741 19.7152 7.63038 19.6087 7.63038C19.5473 7.63038 18.8005 6.93171 17.9112 6.0423L16.3233 4.45428L17.2971 4.22356C17.8327 4.09671 18.7549 3.87447 19.3464 3.72975C19.9379 3.58496 20.505 3.46358 20.6066 3.45996C20.7695 3.45412 20.9804 3.64227 22.3856 5.04767ZM16.7318 6.39563C17.5752 7.24112 18.2528 7.94305 18.2374 7.95552C18.222 7.96805 17.2277 8.20116 16.0278 8.47372L13.8461 8.96913L12.266 7.39647C11.397 6.53151 10.6953 5.8144 10.7068 5.80286C10.7814 5.72841 15.0296 4.76922 15.106 4.80964C15.1567 4.83648 15.8883 5.55014 16.7318 6.39563ZM10.9455 7.67958L12.5303 9.26447L10.3305 9.76437L8.13082 10.2643L6.58142 8.7198C5.72922 7.87032 5.04437 7.16286 5.05949 7.14775C5.07928 7.12803 9.06647 6.15023 9.32963 6.10059C9.34677 6.09734 10.0739 6.80787 10.9455 7.67958ZM5.27317 9.0125C6.13458 9.87401 6.81661 10.5789 6.78889 10.5789C6.76111 10.5789 5.87991 10.7736 4.83069 11.0116C3.78147 11.2497 2.91065 11.4321 2.89553 11.417C2.88042 11.4019 2.69052 10.7027 2.47352 9.8632C1.96197 7.88395 1.96283 7.88027 2.99933 7.60968C3.32043 7.52589 3.61099 7.45476 3.64504 7.45169C3.67908 7.44862 4.41175 8.15098 5.27317 9.0125ZM6.44081 12.6364C6.44081 12.6532 6.04695 13.4548 5.56557 14.4178L4.69033 16.1688H3.96774H3.24515V14.3874V12.606H4.84298C5.72179 12.606 6.44081 12.6197 6.44081 12.6364ZM12.279 12.6364C12.279 12.6532 11.8852 13.4548 11.4038 14.4178L10.5286 16.1688H8.23868H5.94874L6.84027 14.3874L7.7318 12.606H10.0054C11.2559 12.606 12.279 12.6197 12.279 12.6364ZM18.1173 12.6679C18.1173 12.7019 17.73 13.5035 17.2567 14.4492L16.3961 16.1688H14.0915H11.787L12.6785 14.3874L13.57 12.606H15.8436C17.3288 12.606 18.1173 12.6274 18.1173 12.6679ZM23.1258 14.3874L22.2343 16.1688H19.9607C18.7102 16.1688 17.6871 16.1567 17.6871 16.142C17.6871 16.1273 18.0792 15.3257 18.5583 14.3606L19.4296 12.606H21.7234H24.0174L23.1258 14.3874ZM27.8886 14.3874V16.1688H25.7069C24.507 16.1688 23.5253 16.1551 23.5253 16.1384C23.5253 16.1216 23.9192 15.32 24.4005 14.357L25.2758 12.606H26.5822H27.8886V14.3874ZM27.8751 21.9276L27.8579 26.5193L27.7165 26.8264C27.5375 27.215 27.2661 27.499 26.8746 27.7072L26.5673 27.8707L15.6477 27.8867C4.73304 27.9028 4.72812 27.9027 4.38797 27.7755C3.93025 27.6043 3.54437 27.2219 3.37636 26.773C3.24675 26.4268 3.24515 26.3678 3.24515 21.8792V17.3359H15.5687H27.8923L27.8751 21.9276Z" fill="#E5A00D" stroke="#E5A00D" stroke-width="0.8"/>
</svg>
