<svg width="25" height="25" viewBox="0 0 25 25" fill="none" xmlns="http://www.w3.org/2000/svg">
<path fill-rule="evenodd" clip-rule="evenodd" d="M11.7793 3.3205C6.40692 4.59492 1.9016 5.6881 1.76752 5.74976C1.48746 5.87858 1.25545 6.12118 1.12026 6.42666C0.921515 6.87573 0.92934 6.93689 1.45061 9.0087L1.93558 10.9363V16.4513C1.93558 21.2728 1.94542 22.0041 2.01392 22.267C2.18217 22.9129 2.63236 23.4419 3.29154 23.7684L3.72002 23.9806L12.8356 23.9941C21.8002 24.0073 21.9567 24.0059 22.2815 23.9075C23.1259 23.6517 23.7534 22.9668 23.9387 22.0986C24.0225 21.7056 24.0194 10.0856 23.9354 9.90136C23.8019 9.60845 24.3377 9.62525 15.1304 9.62525C10.4739 9.62525 6.67341 9.61607 6.68497 9.60486C6.69658 9.59361 7.77369 9.34304 9.07862 9.04796C10.3835 8.75288 11.9396 8.39972 12.5366 8.26313C13.4624 8.05131 17.3214 7.17687 22.027 6.11265C22.7072 5.95881 23.3815 5.80047 23.5254 5.76076C23.7946 5.68659 23.9957 5.50478 23.9957 5.3357C23.9957 5.16772 23.1336 1.97952 23.0307 1.76694C22.8194 1.33038 22.2575 0.992361 21.7561 1.00013C21.6413 1.00195 17.1518 2.04608 11.7793 3.3205ZM22.0224 1.97846C22.1004 2.01878 22.1898 2.11526 22.2212 2.19291C22.2902 2.36391 22.9356 4.80422 22.9356 4.89419C22.9356 4.93577 22.5981 5.03315 21.9639 5.17459C21.4294 5.29382 20.968 5.39035 20.9386 5.38903C20.9093 5.38777 20.2959 4.79302 19.5757 4.06733C18.6698 3.15464 18.2895 2.73958 18.3419 2.72086C18.5115 2.66031 21.657 1.91559 21.7645 1.9106C21.8283 1.90757 21.9444 1.93815 22.0224 1.97846ZM18.5668 4.32487C19.4404 5.19866 19.8519 5.64324 19.8032 5.66065C19.6569 5.71287 16.3732 6.44638 16.2857 6.44638C16.2353 6.44638 15.6218 5.87247 14.8913 5.14189L13.587 3.83744L14.3869 3.64792C14.8268 3.54373 15.5843 3.36117 16.0702 3.24229C16.5561 3.12336 17.0219 3.02366 17.1054 3.02068C17.2393 3.01589 17.4125 3.17044 18.5668 4.32487ZM13.9225 5.43213C14.6154 6.12663 15.1719 6.70322 15.1593 6.71346C15.1467 6.72375 14.3299 6.91524 13.3443 7.13912L11.5522 7.54607L10.2542 6.25424C9.54037 5.54374 8.96403 4.95469 8.97347 4.9452C9.0347 4.88405 12.5243 4.09614 12.587 4.12935C12.6287 4.1514 13.2297 4.73762 13.9225 5.43213ZM9.16954 6.4868L10.4713 7.78867L8.66437 8.1993L6.85746 8.60998L5.58474 7.34126C4.88472 6.64347 4.32216 6.06235 4.33458 6.04993C4.35083 6.03374 7.62603 5.23054 7.84219 5.18977C7.85628 5.1871 8.45357 5.77075 9.16954 6.4868ZM4.5101 7.58169C5.21769 8.28937 5.77793 8.86838 5.75516 8.86838C5.73234 8.86838 5.0085 9.02833 4.14664 9.22386C3.28478 9.41938 2.56946 9.56924 2.55705 9.55683C2.54463 9.54442 2.38864 8.97005 2.21039 8.28049C1.79019 6.65468 1.7909 6.65165 2.64231 6.42938C2.90607 6.36056 3.14474 6.30212 3.17271 6.2996C3.20068 6.29708 3.80251 6.87402 4.5101 7.58169ZM5.46924 10.5585C5.46924 10.5722 5.1457 11.2307 4.75029 12.0218L4.03134 13.4601H3.43779H2.84423V11.9968V10.5335H4.15673C4.87861 10.5335 5.46924 10.5447 5.46924 10.5585ZM10.2649 10.5585C10.2649 10.5722 9.94139 11.2307 9.54597 12.0218L8.82702 13.4601H6.94605H5.06504L5.79736 11.9968L6.52969 10.5335H8.39728C9.42451 10.5335 10.2649 10.5447 10.2649 10.5585ZM15.0606 10.5843C15.0606 10.6123 14.7425 11.2707 14.3537 12.0476L13.6468 13.4601H11.7538H9.86072L10.593 11.9968L11.3254 10.5335H13.193C14.4129 10.5335 15.0606 10.5511 15.0606 10.5843ZM19.1748 11.9968L18.4425 13.4601H16.5749C15.5476 13.4601 14.7072 13.4502 14.7072 13.4381C14.7072 13.426 15.0293 12.7675 15.4229 11.9748L16.1386 10.5335H18.0228H19.9071L19.1748 11.9968ZM23.0871 11.9968V13.4601H21.295C20.3094 13.4601 19.5029 13.4488 19.5029 13.4351C19.5029 13.4213 19.8265 12.7628 20.2219 11.9718L20.9408 10.5335H22.0139H23.0871V11.9968ZM23.076 18.1905L23.0618 21.9623L22.9457 22.2146C22.7987 22.5338 22.5757 22.767 22.2541 22.9381L22.0017 23.0724L13.0321 23.0855C4.06642 23.0987 4.06239 23.0986 3.78297 22.9941C3.40699 22.8535 3.09002 22.5394 2.95201 22.1707C2.84554 21.8863 2.84423 21.8378 2.84423 18.1508V14.4188H12.9672H23.0901L23.076 18.1905Z" fill="#C57A00" stroke="#C57A00" stroke-width="0.8"/>
</svg>
