<svg width="30" height="33" viewBox="0 0 30 33" fill="none" xmlns="http://www.w3.org/2000/svg">
<path fill-rule="evenodd" clip-rule="evenodd" d="M13.9631 1.12514C13.6918 1.18985 13.194 1.38695 12.8569 1.56299C11.6062 2.21649 2.15494 7.73751 1.87661 7.97733C1.71776 8.11423 1.45514 8.4866 1.29318 8.80469C1.01702 9.34671 0.998666 9.81855 1.00007 16.2893L1.00162 23.1955L1.36926 23.9751C1.57152 24.4039 1.93838 24.9394 2.18466 25.165C2.43079 25.3908 5.0752 26.9843 8.06111 28.7064C12.1068 31.0395 13.6726 31.8647 14.2066 31.9452C15.6143 32.1572 16.2137 31.8956 21.9447 28.5684C24.9284 26.836 27.5708 25.2343 27.817 25.0088C28.0632 24.7833 28.4301 24.248 28.6324 23.8192L29 23.0395L28.9981 16.3346C28.9964 10.1608 28.9737 9.58013 28.7105 9.00584C28.5533 8.6628 28.2923 8.26564 28.1305 8.12343C27.55 7.61308 16.6198 1.38554 15.9485 1.18268C15.2023 0.957203 14.7243 0.943325 13.9631 1.12514ZM21.0685 5.18337C23.9351 6.83639 26.4114 8.31289 26.5715 8.46461C26.7318 8.61633 26.8191 8.81124 26.7659 8.89778C26.5804 9.19842 16.0759 15.2011 15.5013 15.3347C15.1833 15.4086 14.678 15.425 14.3785 15.3711C13.552 15.2225 3.02106 9.09535 3.02106 8.76322C3.02106 8.57454 4.59492 7.58033 8.306 5.4246C11.2127 3.73603 13.7856 2.29212 14.0236 2.21587C15.1707 1.8485 15.5951 2.02735 21.0685 5.18337ZM13.2925 7.64177C12.5509 8.01522 12.2319 8.60916 12.4801 9.15491C12.9994 10.2971 15.8979 10.538 16.9705 9.52821C17.4017 9.12217 17.4473 8.43935 17.0685 8.05981C16.3558 7.3455 14.3268 7.1208 13.2925 7.64177ZM27.8769 16.3785C27.9153 22.4531 27.901 22.8437 27.6197 23.3932C27.456 23.7133 27.1576 24.122 26.9568 24.3015C26.4342 24.7685 16.3362 30.6021 16.0502 30.6021C15.9192 30.6021 15.7695 30.4911 15.7176 30.3555C15.5467 29.9095 15.614 18.2452 15.791 17.6063C15.8823 17.2765 16.1795 16.7669 16.4513 16.474C17.0109 15.8707 27.2351 9.85192 27.6029 9.9093C27.8051 9.9408 27.8417 10.8015 27.8769 16.3785ZM6.81211 12.4566C13.5051 16.3207 13.4828 16.3062 13.9161 17.0648L14.3007 17.7379L14.3466 23.8972C14.3718 27.2847 14.353 30.2142 14.3047 30.4072C14.2565 30.6003 14.118 30.7581 13.9972 30.7581C13.6886 30.7581 3.50788 24.8733 2.96303 24.3799C2.09551 23.5943 2.08758 23.5243 2.08758 16.5995C2.08758 13.0948 2.13425 10.1805 2.19135 10.1234C2.24829 10.0662 2.36156 10.0194 2.44277 10.0194C2.52414 10.0194 4.49022 11.1162 6.81211 12.4566ZM24.3377 13.7408C23.3521 14.7792 23.1343 16.3818 23.9295 16.7448C24.6912 17.0927 25.8569 16.0381 26.2216 14.6711C26.3897 14.0416 26.3803 13.8967 26.1494 13.5434C25.7382 12.9145 25.0509 12.9894 24.3377 13.7408ZM10.2265 16.8469C9.52373 17.2946 9.76971 18.7937 10.7065 19.7736C11.6969 20.8096 12.6671 20.6491 12.6671 19.4494C12.6671 17.9874 11.0845 16.3001 10.2265 16.8469ZM6.91604 18.8971C6.34334 19.9696 7.58426 22.1819 8.75843 22.1819C9.33439 22.1819 9.55547 21.9167 9.55547 21.2253C9.55547 20.4065 9.31432 19.8564 8.65901 19.1803C8.00044 18.501 7.19733 18.3705 6.91604 18.8971ZM3.86291 20.7C3.40162 21.4054 3.82946 22.7013 4.80776 23.5622C5.46416 24.1398 6.01833 24.1914 6.35719 23.7065C6.67769 23.248 6.65808 22.7165 6.29107 21.9059C5.65288 20.4968 4.40185 19.8754 3.86291 20.7ZM18.4133 24.1636C17.3863 25.0297 16.9873 26.7805 17.7087 27.2543C18.2777 27.6279 19.0661 27.2405 19.6661 26.2924C20.1695 25.4967 20.3131 24.294 19.9483 23.9283C19.6336 23.6129 18.9404 23.7191 18.4133 24.1636Z" fill="#E5A00D" stroke="#E5A00D" stroke-width="0.5"/>
</svg>
