<svg width="41" height="28" viewBox="0 0 41 28" fill="none" xmlns="http://www.w3.org/2000/svg">
<path d="M14.6738 18.0619C13.0233 19.0447 8.69559 21.0515 11.3314 23.5627C12.619 24.7893 14.0531 25.6667 15.856 25.6667H26.144C27.9469 25.6667 29.381 24.7893 30.6685 23.5627C33.3044 21.0515 28.9767 19.0447 27.3261 18.0619C23.4556 15.7571 18.5444 15.7571 14.6738 18.0619Z" stroke="#E5A00D" stroke-width="1.5" stroke-linecap="round" stroke-linejoin="round"/>
<path d="M15.75 25.6667L5.33245 25.6667C3.93016 25.6667 2.81479 24.899 1.81333 23.8257C-0.236775 21.6284 3.1292 19.8725 4.41298 19.0125C7.42342 16.9959 10.4062 16.65 13.4167 18.6667" stroke="#E5A00D" stroke-width="1.5" stroke-linecap="round" stroke-linejoin="round"/>
<path d="M27.4165 18.0833C30.4269 16.0667 33.4099 16.9958 36.4203 19.0125C37.7041 19.8724 41.0701 21.6283 39.02 23.8257C38.0186 24.899 36.9032 25.6666 35.5009 25.6666L26.2498 25.6666" stroke="#E5A00D" stroke-width="1.5" stroke-linecap="round" stroke-linejoin="round"/>
<path d="M26.25 7.58331C26.25 10.4828 23.8995 12.8333 21 12.8333C18.1005 12.8333 15.75 10.4828 15.75 7.58331C15.75 4.68382 18.1005 2.33331 21 2.33331C23.8995 2.33331 26.25 4.68382 26.25 7.58331Z" stroke="#E5A00D" stroke-width="1.5"/>
<path d="M14 11.0833C14 13.3385 12.1719 15.1667 9.91668 15.1667C7.66152 15.1667 5.83334 13.3385 5.83334 11.0833C5.83334 8.82817 7.66152 7 9.91668 7C12.1719 7 14 8.82817 14 11.0833Z" stroke="#E5A00D" stroke-width="1.5"/>
<path d="M36.1667 11.0833C36.1667 13.3385 34.3385 15.1667 32.0833 15.1667C29.8282 15.1667 28 13.3385 28 11.0833C28 8.82817 29.8282 7 32.0833 7C34.3385 7 36.1667 8.82817 36.1667 11.0833Z" stroke="#E5A00D" stroke-width="1.5"/>
</svg>
