<svg width="35" height="24" viewBox="0 0 35 24" fill="none" xmlns="http://www.w3.org/2000/svg">
<path d="M12.5776 15.4816C11.1628 16.324 7.45336 18.0441 9.71266 20.1966C10.8163 21.248 12.0455 22 13.5909 22H22.4091C23.9545 22 25.1837 21.248 26.2873 20.1966C28.5466 18.0441 24.8372 16.324 23.4224 15.4816C20.1048 13.5061 15.8952 13.5061 12.5776 15.4816Z" stroke="#C57A00" stroke-width="1.5" stroke-linecap="round" stroke-linejoin="round"/>
<path d="M13.5 22L4.57068 22C3.36872 22 2.41269 21.342 1.55429 20.422C-0.202942 18.5386 2.68218 17.0335 3.78256 16.2964C6.36294 14.5679 8.91964 14.2715 11.5 16" stroke="#C57A00" stroke-width="1.5" stroke-linecap="round" stroke-linejoin="round"/>
<path d="M23.4998 15.5C26.0802 13.7714 28.6371 14.5679 31.2174 16.2964C32.3178 17.0335 35.2029 18.5386 33.4457 20.422C32.5873 21.342 31.6313 22 30.4293 22L22.4998 22" stroke="#C57A00" stroke-width="1.5" stroke-linecap="round" stroke-linejoin="round"/>
<path d="M22.5 6.5C22.5 8.98528 20.4853 11 18 11C15.5147 11 13.5 8.98528 13.5 6.5C13.5 4.01472 15.5147 2 18 2C20.4853 2 22.5 4.01472 22.5 6.5Z" stroke="#C57A00" stroke-width="1.5"/>
<path d="M12 9.5C12 11.433 10.433 13 8.5 13C6.567 13 5 11.433 5 9.5C5 7.567 6.567 6 8.5 6C10.433 6 12 7.567 12 9.5Z" stroke="#C57A00" stroke-width="1.5"/>
<path d="M31 9.5C31 11.433 29.433 13 27.5 13C25.567 13 24 11.433 24 9.5C24 7.567 25.567 6 27.5 6C29.433 6 31 7.567 31 9.5Z" stroke="#C57A00" stroke-width="1.5"/>
</svg>
